<?xml version="1.0" standalone="no"?>
<!DOCTYPE svg PUBLIC "-//W3C//DTD SVG 20010904//EN"
 "http://www.w3.org/TR/2001/REC-SVG-20010904/DTD/svg10.dtd">
<svg version="1.0" xmlns="http://www.w3.org/2000/svg"
 width="1200.000000pt" height="1200.000000pt" viewBox="0 0 1200.000000 1200.000000"
 preserveAspectRatio="xMidYMid meet">
<metadata>
Created by potrace 1.14, written by Peter Selinger 2001-2017
</metadata>
<g transform="translate(0.000000,1200.000000) scale(0.100000,-0.100000)"
fill="#000000" stroke="none">
<path d="M6647 10934 c5 -14 3 -15 -15 -5 -18 10 -22 9 -22 -3 0 -8 5 -18 10
-21 6 -3 10 -11 10 -16 0 -6 -14 1 -31 15 -25 21 -34 24 -51 15 -11 -6 -26 -8
-34 -5 -8 3 -17 -1 -20 -9 -5 -11 -10 -12 -26 -4 -15 8 -19 8 -14 0 10 -15 -7
-14 -22 1 -23 23 -13 -34 10 -59 19 -20 19 -23 4 -23 -9 0 -19 7 -22 15 -4 8
-10 15 -15 15 -9 0 -38 21 -72 54 -11 10 -22 14 -26 10 -3 -5 -26 -10 -50 -12
-26 -2 -49 -9 -56 -19 -7 -9 -18 -14 -26 -11 -8 3 -20 -2 -28 -10 -10 -10 -16
-11 -19 -3 -5 15 -42 14 -42 -2 0 -9 -16 -12 -55 -10 -42 1 -65 -3 -92 -20
-20 -12 -33 -16 -29 -9 4 7 1 12 -7 12 -11 0 -13 -7 -9 -22 3 -14 2 -19 -7
-14 -19 12 -51 -3 -44 -21 4 -11 3 -14 -6 -9 -6 4 -9 16 -6 25 4 14 0 17 -17
15 -13 -1 -26 -3 -30 -3 -5 -1 -8 -10 -8 -21 0 -23 -19 -26 -40 -7 -12 10 -12
9 0 -6 9 -12 10 -21 3 -28 -7 -7 -16 -2 -27 16 -14 22 -22 25 -50 20 -28 -6
-34 -3 -38 13 -4 15 -12 19 -32 15 -18 -4 -26 -1 -26 8 0 12 -2 12 -9 0 -5 -8
-7 -20 -4 -27 3 -8 -5 -16 -21 -20 -13 -3 -27 -13 -29 -22 -4 -15 -5 -15 -6 1
-2 27 -21 20 -21 -9 0 -21 -4 -25 -17 -19 -10 4 -23 8 -30 9 -7 1 -16 5 -19 9
-11 11 15 8 37 -3 13 -7 19 -7 19 -1 0 6 -13 17 -30 26 -16 9 -30 11 -30 6 0
-5 -10 -13 -22 -17 -43 -14 -48 -14 -38 6 8 15 6 18 -8 15 -9 -2 -21 -4 -25
-4 -5 -1 -5 -7 0 -13 13 -22 12 -37 -3 -31 -8 3 -14 0 -14 -6 0 -9 -5 -9 -20
-1 -17 9 -20 8 -20 -10 0 -11 -5 -20 -11 -20 -6 0 -9 -6 -6 -14 3 -8 1 -16 -5
-18 -7 -3 -8 -10 -4 -17 6 -10 10 -10 16 -2 9 16 40 3 41 -18 0 -10 2 -11 6
-3 2 6 9 10 13 7 5 -3 7 -12 3 -20 -3 -8 0 -15 7 -15 6 0 9 -4 5 -9 -3 -5 -1
-12 5 -16 5 -3 10 3 10 14 0 12 -4 21 -9 21 -9 0 -8 34 4 68 8 24 20 28 31 10
5 -7 3 -8 -6 -3 -9 5 -11 4 -6 -3 5 -9 13 -9 28 -1 16 9 24 8 36 -5 15 -15 13
-16 -17 -16 -25 0 -32 -4 -27 -15 3 -10 -1 -15 -12 -15 -14 0 -17 -9 -15 -57
1 -32 -1 -49 -4 -38 -9 34 -34 55 -59 51 -13 -3 -24 0 -24 5 0 5 -7 9 -15 9
-8 0 -12 6 -9 14 3 7 -1 16 -9 19 -10 4 -17 -2 -21 -16 -9 -33 -7 -37 9 -31 8
4 15 1 15 -6 0 -6 -4 -8 -10 -5 -5 3 -10 0 -11 -7 0 -7 -7 1 -15 19 -14 33
-37 36 -48 7 -4 -10 -11 -11 -30 -5 -21 8 -23 7 -19 -10 3 -10 9 -19 13 -19 4
0 19 -9 33 -21 22 -16 24 -23 14 -34 -6 -7 -16 -11 -21 -8 -4 3 -2 9 5 14 11
7 10 9 -3 9 -10 0 -18 5 -18 11 0 8 -5 7 -15 -1 -15 -12 -30 -7 -30 10 0 21
-50 70 -79 76 -17 3 -39 13 -48 21 -18 16 -87 19 -138 7 -14 -3 -35 -7 -46 -9
-28 -4 -57 -20 -74 -39 -15 -20 -3 -20 30 -1 38 22 97 19 110 -5 8 -15 8 -20
-2 -20 -7 0 -2 -10 12 -21 23 -18 23 -19 3 -9 -22 10 -27 7 -24 -14 1 -4 -9
-6 -22 -2 -13 3 -41 0 -63 -6 -35 -10 -37 -12 -15 -17 l24 -6 -27 -13 c-35
-16 -39 -15 -32 4 4 9 1 23 -5 30 -9 11 -8 14 4 14 11 0 14 5 10 17 -6 14 -9
13 -25 -7 -11 -14 -18 -17 -18 -8 0 8 5 19 11 25 8 8 6 11 -7 10 -18 -2 -37
-24 -50 -58 -3 -9 -19 -19 -35 -23 -16 -3 -33 -14 -36 -23 -8 -20 -54 -59 -65
-55 -5 1 -8 -5 -8 -13 0 -8 -4 -15 -9 -15 -15 0 -19 -39 -5 -51 8 -6 12 -15 9
-19 -3 -5 -1 -11 4 -14 5 -4 12 -2 16 4 3 5 12 10 18 10 7 0 6 -4 -3 -10 -9
-6 -10 -10 -3 -10 6 0 15 5 18 10 5 8 11 8 20 0 9 -7 15 -7 23 2 15 19 -9 50
-29 37 -8 -5 -18 -9 -23 -9 -16 0 6 17 31 24 16 5 23 2 26 -11 4 -17 5 -17 6
0 1 18 16 23 25 8 3 -5 -1 -12 -10 -15 -8 -3 -12 -10 -9 -16 3 -6 -1 -17 -9
-25 -8 -9 -13 -22 -10 -29 4 -10 -2 -12 -19 -9 -32 6 -46 -16 -22 -34 11 -7
13 -13 6 -13 -7 0 -9 -4 -6 -10 3 -5 -7 -12 -22 -15 -79 -17 -77 -17 -64 -2 9
12 8 16 -5 21 -9 4 -19 4 -22 1 -3 -3 0 -5 8 -5 10 0 10 -3 0 -15 -7 -8 -18
-15 -25 -15 -7 0 -18 -7 -25 -15 -7 -8 -21 -15 -31 -15 -11 0 -19 -4 -19 -10
0 -5 -9 -10 -20 -10 -11 0 -20 -4 -20 -10 0 -5 -13 -16 -30 -25 -16 -8 -35
-25 -41 -38 -11 -20 -11 -21 5 -8 24 20 27 10 5 -18 -10 -13 -19 -18 -19 -12
0 17 -20 13 -27 -5 -3 -9 0 -20 8 -25 11 -8 9 -9 -6 -7 -15 2 -22 -6 -31 -32
-7 -21 -8 -36 -2 -38 5 -2 2 -15 -7 -29 -11 -16 -17 -49 -18 -93 -1 -37 -8
-74 -14 -82 -7 -8 -10 -17 -8 -20 11 -10 14 -52 6 -62 -20 -26 -31 -83 -21
-110 9 -25 7 -28 -23 -42 -21 -10 -24 -13 -9 -10 17 3 22 1 18 -9 -3 -8 -1
-17 4 -20 6 -4 10 -19 10 -35 0 -21 6 -29 23 -34 17 -4 23 -12 22 -33 0 -15
-5 -34 -12 -41 -7 -7 -10 -19 -7 -26 3 -7 -2 -16 -10 -19 -20 -8 -21 -27 -2
-27 23 0 24 -24 2 -44 -17 -15 -17 -18 -3 -13 18 7 24 -7 7 -18 -12 -7 -2 -36
18 -52 9 -7 11 -13 5 -13 -7 0 -15 5 -18 10 -4 6 -11 8 -16 4 -5 -3 -7 -9 -4
-14 3 -4 -4 -28 -14 -53 -11 -25 -17 -48 -14 -51 4 -3 1 -6 -5 -6 -7 0 -12 5
-12 11 0 6 -9 8 -22 3 l-23 -7 20 23 c18 21 18 23 2 17 -10 -4 -20 -7 -22 -7
-1 0 0 -18 2 -40 4 -29 1 -40 -9 -40 -8 -1 -7 -4 5 -11 23 -13 22 -52 -3 -74
-11 -10 -17 -22 -14 -26 3 -5 -1 -9 -8 -9 -8 -1 -7 -5 5 -14 16 -13 16 -14 -9
-20 -19 -5 -25 -12 -21 -25 2 -11 -3 -24 -14 -32 -22 -16 -24 -39 -6 -58 10
-11 9 -12 -2 -6 -11 6 -13 4 -8 -9 4 -10 7 -20 7 -22 0 -2 7 -4 15 -4 20 0 37
42 21 52 -7 5 -4 8 7 8 11 0 16 5 12 13 -3 6 2 2 11 -10 9 -13 24 -23 33 -23
14 -1 13 -3 -3 -15 -10 -8 -16 -20 -13 -28 3 -8 -3 -20 -14 -28 -10 -7 -19
-19 -19 -25 0 -7 -7 -14 -15 -18 -9 -3 -15 -18 -15 -39 0 -19 -6 -40 -14 -47
-8 -6 -12 -18 -9 -26 7 -18 23 -18 23 0 0 19 17 29 32 20 7 -5 5 -11 -8 -21
-10 -7 -19 -24 -19 -36 -1 -13 -5 -28 -9 -35 -4 -7 -1 -12 9 -12 13 0 14 -4 4
-21 -8 -15 -8 -19 0 -15 14 9 14 0 -1 -27 -12 -22 -19 -117 -9 -117 14 1 26
17 29 40 1 14 14 36 27 50 25 24 25 24 25 3 0 -12 -5 -34 -10 -49 -8 -19 -8
-30 0 -38 5 -5 9 -21 9 -35 -2 -24 -2 -24 -6 -3 -3 12 -12 22 -21 22 -13 0
-14 -2 -4 -9 7 -4 14 -25 15 -47 1 -21 6 -42 11 -45 4 -4 3 -16 -3 -28 -7 -12
-9 -26 -6 -31 3 -6 1 -10 -4 -10 -17 0 -13 -77 5 -112 9 -16 11 -27 6 -24 -16
10 -22 -20 -11 -57 5 -19 7 -52 5 -72 -3 -25 -1 -35 7 -32 7 3 11 10 10 16 -2
6 2 11 8 11 8 0 9 -24 5 -80 -5 -53 -3 -80 4 -80 5 0 10 7 10 15 0 8 4 15 9
15 12 0 21 63 10 76 -10 12 -9 64 1 79 4 6 7 23 6 38 -1 15 4 33 11 39 10 8
12 1 8 -38 -3 -39 -2 -43 4 -19 l9 30 1 -32 c0 -18 6 -33 12 -33 5 0 7 5 4 10
-7 11 19 42 28 34 3 -3 3 4 0 17 -4 15 -3 20 5 15 7 -4 12 -29 12 -55 0 -60
10 -111 21 -111 11 0 12 44 2 54 -7 7 -9 31 -12 121 -1 23 -4 27 -11 15 -8
-12 -10 -10 -9 10 1 31 16 81 18 60 1 -8 8 0 16 18 8 17 17 32 20 32 3 0 3 -4
0 -10 -3 -6 1 -7 9 -4 9 3 15 9 14 12 0 4 0 16 1 27 1 17 3 18 11 5 10 -16 11
-12 14 65 1 17 5 37 9 45 10 22 15 90 6 90 -4 0 -6 8 -4 18 1 9 -1 27 -6 39
-5 13 -4 23 2 25 5 2 11 13 14 26 2 13 11 37 19 54 13 26 13 28 1 18 -22 -18
-20 17 2 44 10 12 11 16 4 9 -7 -6 -20 -9 -27 -6 -8 3 -14 0 -14 -6 0 -6 -5
-11 -11 -11 -8 0 -7 5 1 15 7 9 10 18 7 22 -4 3 2 18 12 32 34 50 36 55 15 48
-18 -7 -18 -7 0 8 19 15 19 15 -2 15 -21 0 -21 1 4 25 14 14 23 29 20 34 -3 5
2 12 12 16 16 7 16 8 -1 14 -17 6 -16 8 3 28 12 13 17 29 14 40 -4 14 -4 15 4
4 6 -9 15 -10 25 -5 26 15 117 105 117 116 0 6 -9 -1 -21 -16 -11 -14 -26 -26
-33 -26 -8 0 2 16 20 36 19 20 32 39 29 44 -3 5 3 15 13 22 9 7 24 38 31 68 7
30 19 62 26 70 21 26 55 91 55 104 0 7 11 23 25 36 14 13 25 31 25 40 0 10 12
26 27 36 15 10 45 36 67 57 21 20 44 37 50 37 5 0 1 6 -10 14 -10 8 -17 16
-14 18 3 3 15 11 27 19 14 10 19 20 14 28 -7 10 -19 7 -57 -14 -27 -15 -60
-35 -74 -45 -14 -9 -36 -20 -50 -24 l-25 -7 25 20 c14 11 26 18 28 16 2 -2 15
6 28 18 39 37 47 41 109 61 73 22 106 37 101 45 -2 3 15 6 37 5 55 -1 74 5 55
18 -9 7 -2 8 20 4 23 -4 32 -2 32 8 0 11 10 13 39 9 37 -5 39 -4 34 16 -4 16
-1 21 15 21 11 0 28 3 38 7 16 6 16 7 -2 14 -13 5 -3 8 29 8 28 1 46 5 42 11
-3 5 -11 7 -18 4 -7 -2 -21 2 -32 10 -19 14 -17 15 22 12 24 -2 46 0 49 5 3 5
14 9 26 9 17 0 18 2 8 15 -13 15 0 19 63 18 9 0 17 4 17 9 0 5 5 6 10 3 6 -3
10 0 10 7 0 10 2 10 9 0 6 -10 10 -7 15 12 6 23 9 24 32 16 14 -6 34 -10 45
-10 17 0 18 2 7 13 -7 7 -22 19 -33 26 -23 14 -6 10 48 -13 44 -19 46 -15 10
19 -15 14 -22 25 -16 25 7 0 15 -4 18 -10 3 -5 17 -10 30 -10 13 0 27 -5 31
-11 4 -8 -1 -9 -17 -5 -20 6 -21 5 -6 -4 21 -13 38 -5 30 15 -3 8 0 15 6 15 6
0 11 -4 11 -9 0 -12 32 -24 39 -14 8 11 42 13 35 2 -6 -11 10 -12 20 -2 18 18
89 12 119 -9 17 -12 27 -17 23 -10 -4 7 -1 12 8 12 9 0 16 -5 16 -11 0 -5 5
-7 10 -4 6 3 10 1 10 -4 0 -6 12 -10 28 -10 23 2 24 2 5 6 -25 5 -32 33 -8 33
8 0 15 -4 15 -8 0 -5 14 -9 32 -9 l31 0 -23 19 c-19 16 -21 21 -10 28 8 5 19
5 25 1 5 -5 26 -12 45 -16 19 -4 42 -12 50 -18 8 -7 6 -1 -5 12 l-20 24 32 -6
c26 -5 33 -3 38 13 4 11 12 17 21 13 7 -3 14 0 14 6 0 9 6 8 23 0 26 -15 69
-21 62 -9 -11 17 28 20 41 3 8 -11 13 -13 14 -6 0 9 7 10 24 3 15 -5 26 -5 28
0 2 6 16 3 32 -5 33 -17 39 -19 32 -6 -3 5 1 12 10 15 8 3 13 2 10 -3 -3 -4 8
-8 25 -9 17 0 39 -8 48 -16 13 -12 20 -13 29 -4 9 9 12 9 12 -1 0 -8 6 -11 15
-7 8 3 15 2 15 -3 0 -4 11 -6 25 -3 18 3 25 0 25 -12 0 -9 5 -16 11 -16 6 0 9
7 6 15 -4 8 -2 17 3 20 6 4 10 -3 10 -14 0 -15 6 -21 21 -21 15 0 19 -5 15
-15 -8 -21 20 -19 34 3 10 15 11 15 7 -5 -3 -14 1 -24 12 -28 14 -6 14 -8 -4
-16 -17 -8 -16 -9 8 -6 18 3 27 0 27 -9 0 -12 26 -19 52 -15 5 0 7 -4 5 -10
-1 -6 18 -17 43 -26 25 -8 49 -19 54 -24 15 -13 38 -11 30 3 -4 6 8 0 27 -14
39 -29 68 -42 87 -39 6 1 12 -3 12 -10 0 -8 4 -8 15 1 12 10 23 8 58 -9 24
-12 51 -21 61 -21 16 0 46 -22 46 -33 0 -3 -16 0 -36 6 -28 8 -37 8 -43 -2 -6
-9 -11 -10 -15 -2 -4 6 -12 11 -17 11 -19 0 23 -34 64 -53 22 -9 47 -15 56
-12 11 3 34 -12 64 -40 30 -28 57 -45 73 -45 13 0 23 -5 22 -12 -2 -6 15 -15
37 -20 52 -11 69 -17 63 -24 -3 -2 -18 0 -33 6 -41 15 -55 -4 -16 -21 17 -8
31 -18 31 -22 0 -5 5 -5 10 -2 6 3 10 1 10 -4 0 -6 8 -11 18 -11 10 0 29 -12
43 -27 13 -14 19 -23 12 -19 -6 3 -14 2 -18 -4 -3 -5 -1 -10 4 -10 6 0 11 -9
11 -19 0 -11 9 -22 19 -26 12 -4 17 -12 14 -24 -3 -13 2 -21 16 -26 12 -3 21
-11 21 -16 0 -18 -22 -8 -51 23 -34 37 -39 30 -8 -13 17 -24 18 -29 5 -29 -9
0 -15 5 -14 12 2 7 -3 12 -10 13 -7 0 -17 6 -21 14 -6 9 -11 10 -15 2 -9 -14
2 -33 14 -26 5 3 11 1 15 -5 3 -5 3 -10 -2 -10 -4 0 -9 -11 -9 -25 -1 -17 7
-32 27 -46 16 -11 29 -30 29 -42 0 -16 3 -18 11 -10 9 9 20 8 43 -4 39 -20 46
-30 46 -69 0 -25 5 -33 24 -38 19 -5 24 -11 21 -27 -3 -15 0 -19 10 -15 10 4
15 -1 15 -14 0 -11 7 -20 15 -20 8 0 15 -4 15 -10 0 -5 7 -10 16 -10 8 0 13
-4 10 -9 -3 -4 4 -17 15 -27 l21 -19 -20 37 c-17 30 -19 38 -7 48 8 7 15 7 19
1 3 -5 0 -12 -6 -14 -10 -4 -10 -6 0 -6 7 -1 10 -5 7 -11 -3 -5 3 -10 13 -10
11 0 27 -11 36 -25 19 -29 20 -38 4 -30 -7 4 -1 -4 15 -17 15 -13 27 -30 27
-37 0 -8 -7 -4 -17 8 l-18 22 -14 -23 c-10 -17 -10 -20 -1 -11 11 10 16 7 27
-14 16 -32 16 -31 -4 -36 -17 -4 -17 -5 0 -6 9 0 17 -6 17 -12 0 -6 -7 -8 -17
-5 -16 6 -16 6 0 -12 9 -10 17 -24 17 -31 0 -6 7 -14 15 -17 8 -4 15 -17 15
-30 0 -13 6 -24 13 -24 9 0 14 -12 15 -31 1 -41 22 -65 22 -26 0 15 5 27 10
27 6 0 10 -5 10 -11 0 -5 4 -7 10 -4 7 4 7 -2 0 -19 -7 -20 -6 -24 5 -19 8 3
12 10 8 16 -3 6 -1 7 6 3 9 -6 9 -11 -1 -24 -10 -12 -10 -14 0 -8 7 4 15 1 18
-8 10 -27 24 -7 19 27 -7 54 -13 74 -28 104 -8 15 -12 34 -10 41 3 8 -1 10
-12 6 -9 -4 -15 -3 -13 2 1 5 -6 23 -15 41 -20 37 -21 43 -6 43 5 0 7 -4 4
-10 -3 -5 0 -10 8 -10 16 0 30 -27 21 -41 -3 -5 2 -9 10 -9 9 0 16 -7 16 -15
0 -9 6 -12 15 -9 8 4 15 16 15 28 0 14 -3 17 -8 8 -6 -9 -13 1 -22 29 -9 26
-28 53 -52 72 -28 22 -35 33 -26 39 10 6 10 8 1 8 -7 0 -13 5 -13 11 0 8 5 8
15 -1 8 -7 15 -18 15 -25 0 -7 18 -20 39 -29 34 -13 40 -20 38 -42 -2 -21 5
-32 25 -43 15 -9 29 -13 33 -10 5 6 8 153 4 192 -1 9 -6 17 -11 17 -4 0 -8 5
-8 12 0 6 -8 21 -17 32 -14 16 -14 18 -2 8 17 -13 29 -7 29 14 0 7 -9 10 -22
7 -18 -4 -20 -2 -8 6 8 5 11 13 7 17 -8 9 -77 13 -94 7 -16 -6 -17 -24 -2 -21
6 2 14 -3 16 -9 3 -8 -4 -13 -16 -13 -14 0 -19 -5 -15 -14 3 -8 12 -12 19 -9
8 2 20 1 27 -3 7 -5 19 -9 26 -10 23 -4 24 -11 2 -17 -11 -3 -20 -1 -20 4 0 5
-8 9 -17 9 -10 0 -14 -4 -8 -8 6 -4 17 -16 25 -27 15 -19 15 -19 -12 -2 -30
18 -42 22 -34 9 3 -5 -14 -9 -37 -10 -30 0 -37 2 -22 7 11 5 24 6 29 3 5 -2 7
1 4 9 -3 8 -12 14 -21 13 -9 0 -31 -1 -49 -2 l-31 -2 19 -22 19 -23 -22 19
c-13 10 -20 23 -17 27 3 5 0 9 -6 9 -6 0 -9 4 -5 10 3 5 12 7 20 3 11 -4 13
-1 9 11 -3 9 -11 13 -18 9 -7 -4 -8 -3 -1 5 6 5 19 12 29 14 22 3 30 36 14 55
-6 7 -9 13 -7 14 2 0 15 3 29 5 32 6 43 25 22 40 -9 7 -19 10 -22 8 -2 -3 2
-9 9 -13 8 -5 9 -11 3 -15 -6 -3 -13 0 -15 6 -4 10 -8 10 -15 -1 -7 -9 -12
-10 -16 -2 -4 6 -3 11 3 11 5 0 13 9 16 20 5 15 12 19 26 15 12 -4 19 -2 20 7
0 7 2 21 4 31 3 15 -1 18 -17 14 -14 -4 -18 -2 -14 9 3 8 1 14 -4 14 -13 0
-31 -36 -22 -45 4 -5 1 -5 -5 -1 -8 4 -13 1 -13 -9 0 -10 -5 -14 -12 -10 -7 4
-4 -1 6 -9 11 -9 16 -19 11 -23 -4 -5 -10 -2 -12 5 -3 6 -14 12 -26 12 -18 0
-14 8 28 50 27 28 55 48 62 45 7 -2 13 0 13 4 0 5 -7 11 -15 15 -18 7 -19 28
-3 73 11 29 10 35 -8 49 -16 13 -16 15 -1 10 16 -5 23 10 18 37 -3 18 24 -1
36 -24 10 -19 10 -25 -2 -32 -8 -4 -15 -17 -15 -28 0 -23 24 -52 35 -41 3 4
10 0 15 -8 9 -16 61 -20 59 -5 0 4 5 11 12 16 10 6 5 11 -16 19 -24 9 -27 13
-15 21 11 8 8 9 -12 5 -21 -5 -26 -3 -22 7 3 9 14 12 30 9 39 -7 30 25 -12 38
-26 9 -33 15 -25 23 6 6 12 20 12 31 1 17 2 18 6 4 2 -10 8 -18 13 -18 5 0 7
7 4 15 -4 10 0 15 11 15 9 0 13 5 10 10 -3 6 2 10 12 11 31 1 -64 28 -113 31
-14 1 -20 7 -16 16 4 12 1 12 -16 3 -26 -14 -72 -14 -72 -1 0 6 11 15 25 20
32 12 114 90 95 90 -9 0 -5 7 11 18 23 15 25 20 16 41 -9 19 -8 26 8 37 18 13
18 14 -4 14 -15 0 -25 -7 -28 -20 -6 -22 -30 -22 -25 0 1 6 -2 27 -7 46 -6 20
-6 36 0 40 19 11 8 22 -31 29 -22 4 -40 11 -40 17 0 6 7 8 15 4 8 -3 15 -3 15
0 0 2 -10 9 -22 14 -22 8 -22 9 4 9 15 1 30 5 33 11 4 6 -1 7 -11 3 -11 -4
-15 -3 -10 5 4 7 -12 9 -56 6 -34 -3 -59 -2 -55 2 9 9 40 15 85 17 37 1 39 4
15 23 -17 13 -17 14 2 8 l20 -7 -20 16 c-11 9 -24 16 -30 17 -5 0 -3 -5 5 -11
13 -9 13 -10 0 -8 -31 3 -51 -1 -45 -10 3 -6 -9 -7 -30 -4 -26 4 -48 -1 -90
-22 -30 -16 -55 -30 -55 -32 0 -3 15 -2 33 1 28 5 27 4 -8 -9 -22 -7 -57 -14
-77 -14 -33 -1 -41 -6 -63 -41 -14 -22 -30 -40 -36 -40 -5 0 -3 10 5 22 20 28
20 38 0 38 -10 0 -14 6 -10 15 3 9 0 15 -10 15 -8 0 -13 -4 -9 -9 3 -5 0 -13
-6 -17 -7 -4 -9 -3 -5 4 3 5 1 12 -6 14 -7 3 1 11 17 19 36 17 43 44 15 59
-11 6 -20 7 -19 3 4 -22 -4 -28 -36 -30 -36 -3 -43 5 -24 24 8 8 7 13 -2 18
-7 5 -10 4 -6 -3 5 -6 -1 -8 -14 -5 -16 5 -6 13 48 40 37 19 70 38 71 44 5 13
34 11 30 -2 -2 -6 -7 -10 -11 -10 -12 1 -57 -42 -51 -50 6 -10 74 21 74 33 0
4 5 8 11 8 5 0 7 -6 3 -12 -6 -10 -4 -10 8 0 8 7 23 9 33 6 13 -5 14 -9 3 -15
-10 -7 -9 -9 4 -9 9 0 20 5 23 10 4 6 11 8 16 4 5 -3 16 0 24 6 8 7 15 9 15 4
0 -5 5 -2 10 6 6 9 10 11 10 3 0 -7 7 -10 15 -7 32 13 14 26 -27 20 l-43 -5
53 17 c37 12 52 22 52 34 0 10 7 18 16 18 8 0 13 4 10 9 -9 14 16 19 49 9 16
-4 38 -8 49 -8 17 0 16 3 -7 26 -15 15 -31 23 -38 18 -8 -4 -9 -3 -5 5 4 6 2
18 -4 26 -10 12 -9 15 10 15 28 0 24 33 -5 38 -31 6 -42 21 -25 33 12 9 12 10
-4 5 -13 -5 -17 -2 -13 8 8 21 -16 14 -57 -17 -41 -32 -47 -24 -11 15 23 25
23 27 5 25 -11 -1 -20 -7 -20 -14 0 -7 -6 -13 -13 -13 -8 0 -24 -11 -36 -24
-15 -16 -29 -22 -43 -18 -15 3 -19 1 -14 -7 4 -6 12 -9 17 -6 17 11 9 -11 -11
-28 -26 -22 -29 -22 -22 6 5 21 5 21 -19 -3 -13 -14 -21 -21 -16 -16 13 18 7
27 -12 17 -10 -6 -22 -7 -26 -3 -3 4 -5 1 -3 -7 2 -7 -5 -15 -14 -16 -12 -2
-17 3 -15 16 2 10 6 22 10 25 4 4 7 15 7 23 0 9 9 24 20 34 11 9 20 23 20 31
0 16 37 29 45 16 3 -5 -1 -13 -10 -17 -8 -5 -24 -27 -35 -48 l-19 -40 42 46
c23 25 51 49 62 53 19 7 19 8 2 20 -16 13 -16 14 3 19 11 3 17 1 14 -4 -3 -6
4 -18 15 -28 20 -17 20 -19 4 -32 -15 -12 -16 -12 -10 4 4 11 2 17 -8 17 -8 0
-15 -7 -15 -15 0 -8 5 -15 11 -15 5 0 7 -5 3 -11 -4 -7 7 -3 25 7 26 15 31 23
26 44 -4 19 -3 21 4 10 9 -12 14 -13 31 -2 13 8 20 8 20 1 0 -5 5 -7 11 -4 15
10 -26 36 -44 29 -8 -3 -18 0 -22 5 -3 6 -12 8 -18 4 -7 -4 -6 0 2 10 7 9 21
17 30 17 13 0 13 -2 2 -9 -8 -5 -9 -11 -3 -15 6 -3 13 -2 17 4 4 6 11 8 16 4
5 -3 17 0 25 7 20 16 1 29 -43 29 -18 0 -33 4 -33 10 0 5 7 7 15 4 10 -4 15 0
15 16 0 13 -4 19 -11 14 -8 -4 -8 0 0 15 11 19 9 21 -16 23 -15 1 -38 1 -50 0
-13 0 -23 3 -23 7 0 14 40 20 64 11 17 -6 22 -4 22 10 0 10 -6 16 -13 13 -7
-3 -13 0 -13 6 0 6 -5 11 -11 11 -5 0 -7 -4 -4 -10 3 -5 -3 -10 -14 -10 -12 0
-21 7 -21 15 0 14 -14 19 -70 28 -24 4 -24 4 3 6 34 1 26 21 -9 21 -16 0 -24
-6 -24 -16 0 -20 -69 -108 -78 -99 -3 3 4 14 16 25 12 12 22 29 22 38 0 10 5
23 12 30 15 15 0 16 -37 2 -40 -15 -20 8 22 25 20 9 33 18 30 22 -12 12 -85
-29 -96 -54 -6 -13 -15 -22 -20 -19 -5 4 -12 0 -15 -6 -3 -7 -4 -4 -1 8 6 25
-16 47 -38 38 -9 -3 -23 -20 -32 -37 -22 -44 -18 -59 5 -17 26 48 25 20 -2
-38 -22 -48 -62 -221 -48 -205 10 10 40 98 40 116 0 7 10 17 22 22 12 6 23 18
24 29 4 28 21 41 19 14 -2 -27 -25 -80 -40 -90 -6 -5 -6 -8 0 -8 6 0 10 -27
10 -61 0 -33 3 -63 7 -65 12 -8 -2 -88 -20 -114 -9 -14 -25 -41 -34 -60 -10
-19 -17 -28 -18 -20 0 9 5 21 11 27 8 8 8 21 -1 47 -9 29 -9 40 1 52 6 8 10
17 7 20 -3 3 1 37 8 77 8 40 14 74 14 77 -1 13 -29 -47 -30 -62 0 -10 -4 -18
-9 -18 -4 0 -13 -15 -18 -32 -5 -18 -14 -32 -20 -31 -6 1 -14 -4 -17 -12 -3
-8 0 -14 6 -12 14 3 20 -15 10 -31 -12 -19 -52 -24 -52 -6 0 17 16 19 23 2 4
-10 6 -10 6 0 1 7 -4 22 -9 33 -6 11 -7 19 -2 19 6 0 12 10 15 23 6 21 6 21
-13 -3 l-20 -25 0 26 c0 14 5 39 10 55 11 33 37 221 35 259 0 14 3 25 7 25 10
0 9 -50 -1 -112 -4 -27 -4 -48 0 -48 4 0 9 -10 11 -22 3 -17 7 -12 16 22 7 25
17 53 22 63 6 9 8 28 4 41 -3 14 2 38 12 57 18 36 26 116 12 125 -5 3 -8 2 -7
-3 1 -4 1 -17 -1 -28 l-1 -20 -9 20 c-8 18 -9 17 -9 -7 -1 -17 -9 -32 -22 -39
-20 -10 -21 -9 -15 50 4 40 3 61 -4 61 -6 0 -10 -6 -9 -12 1 -7 1 -33 0 -58
-2 -58 -21 -34 -21 26 0 47 -7 59 -27 42 -7 -6 -17 -7 -21 -3 -4 4 -1 10 6 12
9 4 10 9 2 18 -11 13 -4 45 10 45 5 0 10 -10 12 -22 2 -13 6 -18 9 -13 3 6 1
30 -4 55 -10 44 -11 44 -17 15 l-6 -30 -11 33 c-7 17 -17 32 -22 32 -6 0 -11
7 -11 16 0 30 -28 -11 -32 -47 -3 -33 -4 -32 -21 23 -13 44 -21 56 -33 51 -9
-3 -19 -15 -24 -27 -7 -20 -9 -19 -20 9 -6 17 -14 45 -17 63 -3 17 -10 32 -14
32 -5 0 -9 6 -9 13 0 13 -39 42 -46 34 -3 -2 3 -24 12 -48 8 -24 17 -53 17
-63 2 -24 -18 -32 -27 -11 -3 9 -2 13 4 10 5 -3 7 1 4 9 -3 8 -12 12 -20 9 -8
-3 -14 0 -14 6 0 6 5 11 11 11 6 0 9 8 7 18 -2 9 -8 17 -13 17 -20 0 -34 16
-28 31 4 12 8 12 22 2 14 -11 14 -11 4 3 -7 9 -10 19 -6 22 3 4 1 7 -5 7 -7 0
-12 -4 -12 -10 0 -5 -4 -10 -9 -10 -10 0 -23 32 -26 62 -2 23 23 32 28 10 2
-9 4 -2 4 16 0 33 -14 41 -35 20 -9 -9 -18 -9 -39 1 -24 11 -29 10 -44 -10
-11 -15 -18 -18 -23 -10 -11 18 -24 4 -19 -21 5 -26 64 -70 103 -78 14 -3 25
-10 25 -15 0 -6 4 -15 8 -22 28 -44 69 -132 76 -164 11 -47 -11 -62 -31 -21
-7 14 -24 32 -38 39 -14 7 -19 13 -12 13 9 0 10 8 6 27 -4 15 -7 33 -7 39 0 9
-7 10 -25 3 -20 -8 -23 -7 -15 3 13 15 -32 92 -47 83 -6 -4 -10 2 -10 12 0 24
-17 49 -27 40 -4 -5 -1 -12 7 -17 8 -5 11 -12 7 -16 -3 -4 -13 -1 -22 6 -8 7
-24 10 -34 7 -27 -7 -60 28 -43 45 9 9 12 8 12 -5 0 -9 6 -17 14 -17 8 0 21
-3 30 -6 11 -4 16 0 16 12 0 15 -2 16 -9 5 -6 -9 -11 -10 -15 -2 -4 6 -4 11 0
11 3 0 -4 9 -17 20 -15 12 -19 19 -10 20 9 0 6 7 -9 20 -26 22 -40 19 -20 -4
6 -9 10 -20 8 -27 -2 -6 -16 12 -31 40 -28 50 -43 67 -30 35z m-122 -55 c-10
-15 -25 -10 -19 6 4 8 10 12 15 9 5 -3 7 -10 4 -15z m-188 -41 c-3 -8 -6 -5
-6 6 -1 11 2 17 5 13 3 -3 4 -12 1 -19z m9 -62 c0 -13 -4 -22 -8 -20 -9 6 -6
44 3 44 4 0 6 -11 5 -24z m411 -18 c-3 -8 -6 -5 -6 6 -1 11 2 17 5 13 3 -3 4
-12 1 -19z m-1077 -12 c0 -3 -4 -8 -10 -11 -5 -3 -10 -1 -10 4 0 6 5 11 10 11
6 0 10 -2 10 -4z m1144 -71 l6 -30 -14 25 c-8 14 -12 28 -9 33 7 11 9 7 17
-28z m-1351 -6 c9 -12 17 -26 17 -33 0 -6 -8 -2 -16 9 -8 11 -19 19 -24 18 -4
-1 -15 6 -25 17 -17 19 -17 19 6 15 13 -3 32 -14 42 -26z m75 -40 c-6 -16 -12
-28 -15 -26 -7 7 8 57 18 57 4 0 3 -14 -3 -31z m1482 -21 c0 -18 -2 -20 -9 -8
-6 8 -7 18 -5 22 9 14 14 9 14 -14z m200 -18 c0 -5 -2 -10 -4 -10 -3 0 -8 5
-11 10 -3 6 -1 10 4 10 6 0 11 -4 11 -10z m-903 -32 c-3 -7 -5 -2 -5 12 0 14
2 19 5 13 2 -7 2 -19 0 -25z m787 16 c3 -8 2 -12 -4 -9 -6 3 -10 10 -10 16 0
14 7 11 14 -7z m-2219 -14 c3 -5 1 -10 -4 -10 -6 0 -11 5 -11 10 0 6 2 10 4
10 3 0 8 -4 11 -10z m597 -22 c-7 -7 -12 -8 -12 -2 0 14 12 26 19 19 2 -3 -1
-11 -7 -17z m-12 -27 c0 -6 -4 -12 -8 -15 -5 -3 -9 1 -9 9 0 8 4 15 9 15 4 0
8 -4 8 -9z m1675 -69 c-1 -9 2 -22 7 -29 6 -7 4 -14 -4 -19 -7 -4 -10 -4 -6 1
4 4 4 13 -1 19 -15 20 -20 55 -6 50 7 -3 12 -13 10 -22z m69 7 c-6 -11 -24 -2
-24 11 0 5 7 7 15 4 8 -4 12 -10 9 -15z m-1798 -31 c-19 -27 -21 -19 -4 18 7
14 14 21 16 15 2 -6 -4 -21 -12 -33z m-793 12 c3 -11 1 -18 -4 -14 -5 3 -9 12
-9 20 0 20 7 17 13 -6z m2597 -25 c0 -14 -2 -25 -4 -25 -2 0 -6 11 -8 25 -3
14 -1 25 3 25 5 0 9 -11 9 -25z m-2026 -20 c-4 -8 -8 -15 -10 -15 -2 0 -4 7
-4 15 0 8 4 15 10 15 5 0 7 -7 4 -15z m566 11 c0 -2 -8 -10 -17 -17 -16 -13
-17 -12 -4 4 13 16 21 21 21 13z m790 -21 c-13 -14 -26 -23 -28 -20 -4 4 38
44 47 45 3 0 -6 -11 -19 -25z m437 3 c-3 -8 -6 -5 -6 6 -1 11 2 17 5 13 3 -3
4 -12 1 -19z m-334 -8 c-7 -26 -29 -44 -38 -30 -3 5 0 10 8 10 8 0 17 9 20 20
3 11 7 20 10 20 3 0 3 -9 0 -20z m-869 2 c-6 -4 -14 -14 -17 -22 -4 -10 -6 -8
-6 8 -1 15 5 22 17 22 10 0 13 -3 6 -8z m1173 -14 c-3 -8 -6 -5 -6 6 -1 11 2
17 5 13 3 -3 4 -12 1 -19z m410 0 c-3 -8 -6 -5 -6 6 -1 11 2 17 5 13 3 -3 4
-12 1 -19z m-1972 2 c3 -6 -1 -13 -9 -16 -9 -3 -14 -10 -11 -14 3 -5 -3 -16
-12 -26 -10 -10 -18 -22 -18 -28 -1 -6 -6 -10 -13 -8 -7 1 -12 -2 -12 -7 0 -5
-7 -11 -15 -15 -20 -7 -7 18 29 56 17 18 21 28 13 31 -8 3 -5 10 8 21 24 18
32 20 40 6z m452 4 c-3 -3 -12 -4 -19 -1 -8 3 -5 6 6 6 11 1 17 -2 13 -5z
m713 -19 c-15 -18 0 -20 20 -2 7 6 -1 -6 -18 -28 -17 -21 -42 -45 -54 -53 -15
-9 -17 -11 -5 -8 10 3 31 6 45 6 21 0 24 2 12 10 -13 9 -13 10 0 11 8 1 19 1
24 0 5 -1 23 11 40 26 16 15 24 19 16 8 -25 -33 -53 -52 -110 -75 -51 -20 -93
-38 -114 -49 -5 -2 -7 6 -3 18 4 15 -1 29 -15 43 l-21 21 39 19 c21 10 44 16
52 13 7 -2 11 -1 8 4 -5 8 85 60 93 54 2 -1 -2 -9 -9 -18z m657 -7 c-3 -7 -5
-2 -5 12 0 14 2 19 5 13 2 -7 2 -19 0 -25z m-1936 0 c-4 -12 -13 -24 -19 -26
-7 -2 -7 5 1 22 15 32 30 35 18 4z m439 7 c-7 -8 -17 -15 -23 -15 -6 0 -2 7 9
15 25 19 30 19 14 0z m92 0 c0 -5 -5 -10 -11 -11 -8 -2 -7 -1 0 3 8 4 7 8 -2
15 -11 8 -11 9 -1 6 8 -2 14 -8 14 -13z m678 10 c0 -6 -30 -18 -70 -29 -19 -5
-16 -2 10 13 34 20 60 26 60 16z m-955 -15 c-4 -6 -11 -8 -16 -4 -6 3 -13 -3
-16 -15 -3 -12 -12 -21 -21 -21 -12 0 -10 6 8 25 23 24 58 36 45 15z m-322
-22 c-3 -13 -2 -20 2 -16 10 9 35 -10 35 -26 0 -6 -5 -4 -11 4 -8 12 -10 9 -6
-12 3 -20 0 -28 -10 -28 -9 0 -13 6 -10 13 2 6 -1 18 -8 24 -10 10 -14 9 -19
-3 -4 -9 -2 -12 5 -8 14 8 2 -33 -17 -61 -17 -24 -18 -12 -2 18 10 20 10 21
-5 9 -9 -8 -19 -22 -22 -32 -5 -15 -45 -36 -45 -24 0 3 23 33 50 67 28 34 50
70 50 79 0 10 4 18 9 18 5 0 7 -10 4 -22z m92 -24 c-19 -19 -35 -44 -35 -54 0
-11 -4 -20 -10 -20 -20 0 -9 33 27 75 20 24 40 42 45 39 4 -3 -8 -21 -27 -40z
m305 31 c0 -9 -9 -15 -22 -15 -22 1 -23 1 -4 15 25 19 26 19 26 0z m-935 -5
c-3 -5 -12 -7 -20 -3 -21 7 -19 13 6 13 11 0 18 -4 14 -10z m875 -4 c0 -7 -11
-21 -25 -30 -26 -17 -26 -17 -13 6 11 20 28 37 36 38 1 0 2 -6 2 -14z m104 -4
c-32 -30 -94 -64 -94 -53 0 7 12 16 26 21 15 6 38 19 52 30 31 25 43 26 16 2z
m167 8 c77 7 87 -5 11 -15 -31 -4 -69 -13 -84 -21 -23 -12 -27 -12 -32 2 -6
15 -8 15 -31 0 -29 -19 -38 -20 -33 -4 4 12 101 47 106 38 1 -3 29 -3 63 0z
m136 4 c-3 -3 -12 -4 -19 -1 -8 3 -5 6 6 6 11 1 17 -2 13 -5z m433 -4 c0 -5
-5 -10 -11 -10 -5 0 -7 5 -4 10 3 6 8 10 11 10 2 0 4 -4 4 -10z m-1520 -20
c-6 -11 -13 -20 -16 -20 -2 0 0 9 6 20 6 11 13 20 16 20 2 0 0 -9 -6 -20z
m620 -20 c0 -5 -4 -10 -10 -10 -5 0 -10 5 -10 10 0 6 5 10 10 10 6 0 10 -4 10
-10z m376 1 c-6 -9 -46 -22 -46 -15 0 3 10 9 23 14 29 11 29 11 23 1z m1361
-13 c-3 -8 -6 -5 -6 6 -1 11 2 17 5 13 3 -3 4 -12 1 -19z m418 2 c-3 -5 -14
-10 -23 -9 -14 0 -13 2 3 9 27 11 27 11 20 0z m-1868 -6 c-3 -3 -12 -4 -19 -1
-8 3 -5 6 6 6 11 1 17 -2 13 -5z m1677 -10 c3 -8 2 -12 -4 -9 -6 3 -10 10 -10
16 0 14 7 11 14 -7z m-1627 -20 c-3 -3 -12 -4 -19 -1 -8 3 -5 6 6 6 11 1 17
-2 13 -5z m-590 -36 c-3 -7 -5 -2 -5 12 0 14 2 19 5 13 2 -7 2 -19 0 -25z
m2510 0 c-3 -8 -6 -5 -6 6 -1 11 2 17 5 13 3 -3 4 -12 1 -19z m-2937 -28 c-16
-40 -23 -33 -9 9 6 18 14 30 17 27 2 -3 -1 -19 -8 -36z m2140 21 c0 -5 -7 -12
-16 -15 -14 -5 -15 -4 -4 9 14 17 20 19 20 6z m-620 -21 c-20 -13 -43 -13 -35
0 3 6 16 10 28 10 18 0 19 -2 7 -10z m1347 4 c-3 -3 -12 -4 -19 -1 -8 3 -5 6
6 6 11 1 17 -2 13 -5z m-2673 -28 c-6 -15 -24 -23 -24 -11 0 8 24 34 28 30 1
-1 0 -10 -4 -19z m2127 -17 l-10 -24 0 26 c-1 14 2 29 6 33 12 12 14 -9 4 -35z
m494 20 c-4 -5 -13 -9 -22 -9 -13 0 -13 3 -3 15 13 15 35 11 25 -6z m-3105 -4
c0 -8 -2 -15 -4 -15 -2 0 -6 7 -10 15 -3 8 -1 15 4 15 6 0 10 -7 10 -15z m124
-10 c11 -8 16 -15 10 -15 -5 0 -18 7 -28 15 -11 8 -16 15 -10 15 5 0 18 -7 28
-15z m288 -9 c7 5 9 -2 4 -20 -5 -21 -4 -26 6 -20 7 5 4 -5 -6 -21 -11 -17
-25 -34 -33 -38 -7 -4 -13 -15 -13 -22 0 -8 -5 -15 -11 -15 -6 0 -9 6 -6 14 3
7 9 35 12 62 4 27 12 58 18 69 10 18 11 18 15 2 2 -9 8 -14 14 -11z m-382 4
c0 -5 -4 -10 -10 -10 -5 0 -10 5 -10 10 0 6 5 10 10 10 6 0 10 -4 10 -10z
m175 -47 c11 -21 22 -40 25 -43 19 -17 53 -150 39 -150 -5 0 -9 6 -9 13 0 8
-4 7 -10 -3 -8 -12 -10 -10 -10 8 0 13 4 20 10 17 6 -3 10 -2 10 4 0 5 -5 13
-10 16 -6 4 -8 10 -5 15 3 4 -2 11 -10 14 -8 3 -15 9 -14 13 3 19 -2 33 -11
33 -13 0 -2 -73 11 -78 5 -2 9 -29 9 -60 0 -50 -1 -54 -14 -37 -8 11 -12 25
-9 32 7 18 -17 153 -28 153 -5 0 -9 5 -9 10 0 7 6 7 20 0 21 -11 27 -1 10 16
-12 12 -32 77 -22 70 4 -2 16 -22 27 -43z m2975 43 c0 -2 -8 -10 -17 -17 -16
-13 -17 -12 -4 4 13 16 21 21 21 13z m-2917 -34 c-3 -12 -9 -19 -14 -16 -5 3
-4 14 2 25 13 26 20 21 12 -9z m53 -19 c-10 -10 -19 5 -10 18 6 11 8 11 12 0
2 -7 1 -15 -2 -18z m2734 -24 c-7 -11 -14 -18 -17 -15 -3 3 0 12 7 21 18 21
23 19 10 -6z m-2730 2 c0 -12 -29 -35 -36 -28 -7 6 17 36 29 37 4 0 7 -4 7 -9z
m1430 -12 l-25 -7 25 -2 c14 -1 19 -4 12 -7 -20 -8 -42 5 -36 21 3 9 13 12 27
8 21 -6 21 -6 -3 -13z m70 11 c12 -8 9 -10 -13 -10 -16 0 -26 4 -22 10 8 12
16 12 35 0z m-169 -9 c-10 -6 -5 -11 20 -17 19 -4 37 -7 42 -6 4 1 7 -3 7 -9
0 -7 -13 -9 -37 -5 -59 11 -71 16 -77 31 -4 11 3 15 27 15 22 0 28 -3 18 -9z
m400 -11 c15 0 30 -4 33 -9 3 -5 -33 -8 -83 -8 -49 1 -88 3 -87 5 11 10 93 27
101 20 5 -4 21 -8 36 -8z m879 6 c0 -3 -4 -8 -10 -11 -5 -3 -10 -1 -10 4 0 6
5 11 10 11 6 0 10 -2 10 -4z m-1140 -38 c0 -5 -14 -8 -31 -8 -16 0 -28 4 -25
9 7 11 56 9 56 -1z m1139 -60 c1 -16 -3 -28 -7 -28 -5 0 -9 21 -9 47 0 50 15
32 16 -19z m-774 32 c3 -5 -3 -10 -14 -10 -11 0 -23 -4 -26 -10 -3 -5 -15 -10
-25 -10 -29 0 -13 28 18 33 15 2 30 5 34 6 4 0 10 -3 13 -9z m223 -18 c8 -6
-3 -16 -37 -33 -28 -13 -48 -29 -46 -36 2 -7 -2 -10 -11 -6 -22 8 -17 21 14
37 16 8 34 22 41 30 15 18 21 19 39 8z m362 -21 c0 -11 -112 -112 -118 -106
-2 2 12 18 32 36 20 17 35 34 32 36 -7 7 18 32 27 26 4 -2 7 1 7 6 0 6 5 11
10 11 6 0 10 -4 10 -9z m-2540 -45 c0 -12 -5 -7 -19 24 -11 24 -11 24 3 6 9
-11 16 -24 16 -30z m1980 34 c-8 -5 -28 -9 -45 -9 -29 1 -29 1 -5 9 14 4 34 8
45 9 16 1 17 -1 5 -9z m935 -60 c-10 -11 -23 -20 -28 -20 -6 0 -2 9 8 20 10
11 23 20 28 20 6 0 2 -9 -8 -20z m110 0 c-3 -5 -11 -10 -16 -10 -6 0 -7 5 -4
10 3 6 11 10 16 10 6 0 7 -4 4 -10z m71 -8 c-10 -2 -22 0 -28 6 -6 6 0 7 19 4
21 -5 23 -7 9 -10z m-116 -2 c-8 -5 -19 -10 -25 -10 -5 0 -3 5 5 10 8 5 20 10
25 10 6 0 3 -5 -5 -10z m-2987 -30 c3 -11 1 -18 -4 -14 -5 3 -9 12 -9 20 0 20
7 17 13 -6z m3021 1 c17 -19 17 -19 -1 -17 -10 2 -19 10 -21 19 -4 22 1 21 22
-2z m46 9 c0 -5 -8 -10 -17 -10 -15 0 -16 2 -3 10 19 12 20 12 20 0z m-665
-26 c-31 -24 -55 -36 -55 -27 0 9 50 41 65 42 6 0 1 -7 -10 -15z m-238 0 c-3
-3 -12 -4 -19 -1 -8 3 -5 6 6 6 11 1 17 -2 13 -5z m-788 -48 c9 -11 9 -16 -1
-22 -7 -4 -10 -4 -6 1 4 4 3 14 -3 22 -6 7 -9 13 -6 13 2 0 10 -6 16 -14z
m961 -51 c-7 -9 -15 -13 -18 -10 -3 3 -10 1 -17 -3 -6 -4 -2 1 8 11 24 21 44
23 27 2z m-330 -5 c0 -5 -5 -10 -11 -10 -5 0 -7 5 -4 10 3 6 8 10 11 10 2 0 4
-4 4 -10z m417 4 c-3 -3 -12 -4 -19 -1 -8 3 -5 6 6 6 11 1 17 -2 13 -5z m-192
-34 c-11 -5 -27 -9 -35 -9 -13 -1 -13 0 0 9 8 5 24 9 35 9 l20 0 -20 -9z
m-1865 -64 c0 -11 -30 1 -39 16 -11 18 -11 18 14 2 14 -9 25 -17 25 -18z
m1832 22 c-13 -13 -104 -29 -114 -19 -4 4 3 8 16 9 12 1 33 5 45 10 35 13 66
13 53 0z m873 -26 c-38 -23 -74 -38 -98 -39 -21 -1 -35 2 -32 8 4 5 15 9 25 9
27 0 51 11 44 21 -3 5 2 6 11 3 9 -4 23 0 33 9 15 14 40 23 67 26 6 0 -17 -16
-50 -37z m-2845 -27 c0 -3 -9 -1 -20 5 -11 6 -18 15 -15 21 6 9 35 -12 35 -26z
m2230 31 c0 -2 -7 -6 -15 -10 -8 -3 -15 -1 -15 4 0 6 7 10 15 10 8 0 15 -2 15
-4z m325 -16 c-3 -5 -11 -10 -16 -10 -6 0 -7 5 -4 10 3 6 11 10 16 10 6 0 7
-4 4 -10z m398 -10 c-3 -11 -7 -20 -9 -20 -2 0 -4 9 -4 20 0 11 4 20 9 20 5 0
7 -9 4 -20z m-818 -10 c-25 -11 -58 -12 -51 -2 2 4 19 8 38 9 27 2 29 0 13 -7z
m765 -14 c0 -2 -11 -6 -25 -8 -13 -3 -22 -1 -19 3 5 9 44 13 44 5z m-617 -23
c-7 -2 -19 -2 -25 0 -7 3 -2 5 12 5 14 0 19 -2 13 -5z m491 -2 c-17 -4 -36
-11 -42 -15 -7 -4 -12 -3 -12 3 0 13 19 19 55 19 l30 0 -31 -7z m-304 -21 c-8
-5 -19 -10 -25 -10 -5 0 -3 5 5 10 8 5 20 10 25 10 6 0 3 -5 -5 -10z m442 -23
c-28 -30 -28 -40 1 -33 12 3 3 -3 -20 -14 -24 -10 -43 -24 -43 -30 0 -5 -5
-10 -10 -10 -7 0 -8 6 -3 14 16 27 78 96 87 96 5 0 0 -10 -12 -23z m-494 -11
c12 0 22 -4 22 -8 0 -13 48 -9 56 4 5 8 11 6 20 -6 7 -11 29 -19 56 -21 23 -1
50 -5 58 -8 8 -3 49 -13 90 -22 41 -10 89 -21 106 -26 17 -5 38 -7 46 -4 8 3
25 1 39 -5 23 -10 22 -10 -8 -7 -18 2 -33 0 -33 -5 0 -5 -4 -7 -8 -4 -5 3 -30
8 -56 11 -34 5 -46 4 -42 -4 9 -13 1 -14 -22 -2 -28 14 -102 22 -102 11 0 -5
9 -10 19 -10 22 0 39 -19 19 -21 -7 -1 -16 -1 -19 -1 -10 2 -18 -37 -9 -43 4
-3 13 2 20 10 7 8 23 15 36 15 13 0 24 5 24 10 0 6 9 10 20 10 11 0 20 -7 20
-16 0 -8 -4 -12 -10 -9 -5 3 -10 2 -10 -2 0 -5 -12 -14 -27 -20 l-28 -11 28
-1 c15 -1 27 -6 27 -12 0 -10 -16 -9 -90 6 -8 2 -21 4 -28 4 -10 1 -10 6 -2
22 14 26 10 30 -43 46 -32 9 -43 10 -49 0 -15 -23 -8 -37 32 -63 42 -28 54
-42 21 -24 -11 5 -31 10 -46 10 -14 0 -28 6 -31 14 -3 8 -19 18 -35 21 -41 9
-36 28 6 22 19 -3 35 -2 36 2 0 3 2 14 4 23 2 14 -4 17 -29 16 -37 -1 -59 9
-51 23 7 10 71 4 110 -11 34 -13 69 -12 37 1 -13 5 -20 14 -17 20 5 7 -2 10
-17 7 -14 -1 -33 3 -42 11 -9 7 -36 14 -60 15 -24 0 -42 4 -40 8 3 4 -11 10
-31 14 -19 3 -35 11 -35 16 0 6 9 7 23 3 12 -4 32 -8 45 -9z m549 -12 c-3 -3
-12 -4 -19 -1 -8 3 -5 6 6 6 11 1 17 -2 13 -5z m-182 -34 c-3 -5 -11 -10 -16
-10 -6 0 -7 5 -4 10 3 6 11 10 16 10 6 0 7 -4 4 -10z m42 4 c-3 -3 -12 -4 -19
-1 -8 3 -5 6 6 6 11 1 17 -2 13 -5z m-3647 -8 c0 -2 -7 -9 -15 -16 -13 -11
-14 -10 -9 4 5 14 24 23 24 12z m3210 -20 c0 -3 -4 -8 -10 -11 -5 -3 -10 -1
-10 4 0 6 5 11 10 11 6 0 10 -2 10 -4z m-3224 -51 c-3 -9 -11 -13 -16 -10 -8
5 -7 11 1 21 14 18 24 11 15 -11z m3850 13 c6 -10 -13 -9 -46 2 -23 8 -22 8 8
7 19 -1 36 -5 38 -9z m49 2 c-3 -5 -12 -7 -20 -3 -21 7 -19 13 6 13 11 0 18
-4 14 -10z m-608 -6 c-3 -3 -12 -4 -19 -1 -8 3 -5 6 6 6 11 1 17 -2 13 -5z
m523 -13 c0 -5 -6 -12 -12 -15 -7 -4 -3 -4 10 -2 25 5 30 -9 6 -18 -39 -15
-59 5 -32 32 14 14 28 16 28 3z m-50 -15 c0 -13 -16 -18 -90 -30 -28 -4 -25
-2 13 10 26 8 47 19 47 25 0 5 7 9 15 9 8 0 15 -6 15 -14z m115 4 c-3 -5 -14
-10 -23 -10 -15 0 -15 2 -2 10 20 13 33 13 25 0z m-3271 -59 c3 -5 -1 -11 -9
-14 -9 -4 -12 -1 -8 9 6 16 10 17 17 5z m-174 -26 c-13 -14 -26 -23 -28 -20
-4 4 38 44 47 45 3 0 -6 -11 -19 -25z m3190 -49 c8 -4 -1 -4 -20 -1 -19 3 -39
10 -44 15 -10 10 19 3 64 -14z m67 8 c-3 -3 -12 -4 -19 -1 -8 3 -5 6 6 6 11 1
17 -2 13 -5z m171 -61 c-10 -2 -26 -2 -35 0 -10 3 -2 5 17 5 19 0 27 -2 18 -5z
m-314 -102 c-2 -3 -12 3 -22 13 -16 17 -16 18 5 5 12 -7 20 -15 17 -18z m313
-17 c-3 -3 -17 -2 -32 2 -19 5 -23 9 -14 15 13 7 55 -8 46 -17z m-3875 -42
c-2 -24 1 -32 12 -32 9 0 16 -4 16 -10 0 -13 -13 -13 -28 2 -9 9 -13 7 -18 -5
-3 -9 -9 -17 -13 -17 -10 0 -8 31 3 48 4 6 4 17 1 22 -3 6 -1 10 5 10 6 0 8 5
4 11 -4 7 -1 10 7 7 9 -3 13 -16 11 -36z m3611 25 c3 -8 -1 -14 -8 -14 -7 0
-11 6 -8 14 3 7 6 13 8 13 2 0 5 -6 8 -13z m-3176 -29 c-3 -8 -6 -5 -6 6 -1
11 2 17 5 13 3 -3 4 -12 1 -19z m-397 4 c0 -5 -7 -9 -15 -9 -8 0 -15 4 -15 9
0 4 7 8 15 8 8 0 15 -4 15 -8z m3623 -16 c4 -10 1 -13 -8 -9 -8 3 -12 9 -9 14
7 12 11 11 17 -5z m132 4 c3 -5 1 -10 -4 -10 -6 0 -11 5 -11 10 0 6 2 10 4 10
3 0 8 -4 11 -10z m-255 -24 c0 -3 -4 -8 -10 -11 -5 -3 -10 -1 -10 4 0 6 5 11
10 11 6 0 10 -2 10 -4z m220 -10 c0 -2 -7 -9 -15 -16 -13 -11 -14 -10 -9 4 5
14 24 23 24 12z m-3856 -41 c-4 -8 -11 -15 -16 -15 -6 0 -5 6 2 15 7 8 14 15
16 15 2 0 1 -7 -2 -15z m3906 -59 c0 -3 -4 -8 -10 -11 -5 -3 -10 -1 -10 4 0 6
5 11 10 11 6 0 10 -2 10 -4z m-3920 -36 c0 -5 -5 -10 -11 -10 -5 0 -7 5 -4 10
3 6 8 10 11 10 2 0 4 -4 4 -10z m3880 -15 c-7 -8 -17 -15 -22 -15 -6 0 -5 7 2
15 7 8 17 15 22 15 6 0 5 -7 -2 -15z m-3830 -25 c0 -5 -7 -10 -16 -10 -8 0
-12 5 -9 10 3 6 10 10 16 10 5 0 9 -4 9 -10z m3755 -10 c3 -5 1 -10 -4 -10 -6
0 -11 5 -11 10 0 6 2 10 4 10 3 0 8 -4 11 -10z m-3478 -62 c-3 -8 -6 -5 -6 6
-1 11 2 17 5 13 3 -3 4 -12 1 -19z m-333 -3 c-4 -8 -10 -12 -15 -9 -11 6 -2
24 11 24 5 0 7 -7 4 -15z m4147 -99 c8 -64 4 -71 -21 -35 -8 12 -20 27 -27 34
-8 9 -4 12 18 12 16 0 30 -5 30 -11z m-3886 -54 c-11 -2 -32 -15 -46 -29 -23
-21 -27 -22 -33 -8 -3 9 -2 14 2 11 5 -3 21 6 37 18 17 13 36 21 45 18 12 -5
11 -7 -5 -10z m-17 -72 c-7 -10 -14 -17 -17 -15 -4 4 18 35 25 35 2 0 -1 -9
-8 -20z m-168 0 c0 -5 -5 -10 -11 -10 -5 0 -7 5 -4 10 3 6 8 10 11 10 2 0 4
-4 4 -10z m-100 -4 c0 -3 -4 -8 -10 -11 -5 -3 -10 -1 -10 4 0 6 5 11 10 11 6
0 10 -2 10 -4z m4049 -23 c-4 -25 3 -45 14 -40 8 3 13 -8 14 -32 3 -40 -2 -35
-37 31 -24 45 -24 48 -5 48 8 0 14 -3 14 -7z m56 -123 c3 -6 -1 -7 -9 -4 -18
7 -21 14 -7 14 6 0 13 -4 16 -10z m-3955 -71 c0 -14 -17 -10 -23 5 -4 10 -1
13 9 9 7 -3 14 -9 14 -14z m-23 -48 c0 -11 -5 -17 -9 -15 -4 3 -8 0 -8 -5 0
-6 4 -11 9 -11 6 0 6 -12 1 -29 -16 -56 -24 -164 -11 -157 8 5 11 -9 10 -46
l-1 -53 -15 55 c-8 30 -14 66 -13 80 0 14 2 54 4 90 3 70 12 110 26 110 5 0 8
-9 7 -19z m-56 -180 c1 -14 1 -37 0 -51 -2 -20 0 -22 8 -10 9 12 11 10 11 -10
0 -14 -5 -32 -11 -40 -9 -13 -10 -13 -6 2 3 9 1 18 -5 20 -6 2 -12 22 -13 44
-2 21 -6 46 -9 55 -5 10 -2 16 9 16 9 0 15 -10 16 -26z m177 -48 c-1 -36 -3
-41 -8 -23 l-6 25 -11 -30 c-6 -16 -12 -24 -12 -16 -1 12 30 90 36 91 1 0 1
-21 1 -47z m-211 -105 c-3 -8 -6 -5 -6 6 -1 11 2 17 5 13 3 -3 4 -12 1 -19z
m33 2 c0 -11 -4 -20 -9 -20 -5 0 -7 9 -4 20 3 11 7 20 9 20 2 0 4 -9 4 -20z
m81 -60 c0 -8 5 -4 9 10 8 22 9 21 7 -10 -2 -41 -31 -55 -40 -19 -3 11 -10 18
-16 14 -7 -4 -11 3 -11 17 0 18 2 20 10 8 10 -16 13 -10 11 30 0 24 0 24 14
-5 8 -16 15 -37 16 -45z m-74 -16 c-6 -20 -13 -31 -15 -25 -6 17 7 61 17 61 5
0 4 -16 -2 -36z m-30 -24 c1 -11 -2 -18 -8 -15 -11 7 -12 35 -1 35 4 0 8 -9 9
-20z"/>
<path d="M6524 10315 c-26 -18 -15 -26 15 -11 13 7 19 16 14 19 -6 4 -19 0
-29 -8z"/>
<path d="M6435 10260 c-16 -7 -17 -9 -3 -9 9 -1 20 4 23 9 7 11 7 11 -20 0z"/>
<path d="M6706 10943 c-11 -11 -6 -21 14 -26 12 -3 20 0 20 8 0 14 -25 27 -34
18z"/>
<path d="M6905 10909 c-4 -6 -4 -13 -1 -16 3 -4 6 -1 6 5 0 6 8 13 18 15 15 4
15 5 0 6 -9 0 -20 -4 -23 -10z"/>
<path d="M6750 10890 c0 -13 5 -18 14 -14 8 3 12 12 9 20 -8 21 -23 17 -23 -6z"/>
<path d="M7318 10540 c-2 -22 -1 -40 3 -40 4 0 9 18 11 40 2 22 1 40 -3 40 -4
0 -9 -18 -11 -40z"/>
<path d="M7345 10450 c-3 -5 -1 -10 4 -10 6 0 11 5 11 10 0 6 -2 10 -4 10 -3
0 -8 -4 -11 -10z"/>
<path d="M7335 10380 c-3 -5 -1 -10 4 -10 6 0 11 5 11 10 0 6 -2 10 -4 10 -3
0 -8 -4 -11 -10z"/>
<path d="M7417 10364 c-11 -11 -8 -26 3 -19 6 4 18 1 26 -6 8 -6 17 -9 21 -5
3 3 0 6 -8 6 -12 0 -11 2 1 11 13 9 13 10 -1 6 -9 -3 -21 -1 -26 4 -5 5 -12 6
-16 3z"/>
<path d="M7668 10353 c7 -3 16 -2 19 1 4 3 -2 6 -13 5 -11 0 -14 -3 -6 -6z"/>
<path d="M7711 10304 c0 -11 3 -14 6 -6 3 7 2 16 -1 19 -3 4 -6 -2 -5 -13z"/>
<path d="M4460 10186 c0 -2 7 -7 16 -10 8 -3 12 -2 9 4 -6 10 -25 14 -25 6z"/>
<path d="M7820 10171 c0 -5 7 -12 16 -15 14 -5 15 -4 4 9 -14 17 -20 19 -20 6z"/>
<path d="M7856 10167 c3 -10 9 -15 12 -12 3 3 0 11 -7 18 -10 9 -11 8 -5 -6z"/>
<path d="M7383 9933 c-7 -37 -10 -69 -8 -72 7 -7 22 41 29 92 10 73 -8 56 -21
-20z"/>
<path d="M7940 9961 c0 -5 6 -9 13 -8 32 1 48 -4 42 -13 -3 -5 1 -10 10 -10
10 0 13 -5 9 -12 -4 -7 -3 -8 4 -4 18 11 3 34 -30 45 -38 13 -48 14 -48 2z"/>
<path d="M8030 9879 c0 -5 -4 -8 -9 -4 -5 3 -12 1 -15 -4 -3 -5 7 -11 22 -14
29 -5 49 12 29 25 -17 11 -27 10 -27 -3z"/>
<path d="M7854 9824 c-18 -15 -18 -15 6 -10 14 3 38 6 53 6 16 0 26 4 22 10
-10 15 -59 12 -81 -6z"/>
<path d="M8026 9809 c3 -6 12 -8 19 -5 7 2 18 -1 25 -7 10 -9 11 -9 8 3 -3 8
-17 16 -32 17 -16 1 -24 -2 -20 -8z"/>
<path d="M7945 9799 c-4 -5 -15 -9 -26 -9 -10 0 -19 -4 -19 -9 0 -6 16 -7 35
-4 19 3 42 2 52 -2 26 -12 43 -14 43 -7 0 12 -80 41 -85 31z"/>
<path d="M7845 9779 c18 -5 33 -5 39 1 7 7 -4 10 -29 9 -40 -1 -40 -1 -10 -10z"/>
<path d="M7889 9751 c-1 -3 -1 -9 0 -13 0 -5 -8 -8 -18 -8 -10 0 -21 -6 -24
-13 -6 -16 50 -11 72 7 8 6 25 11 39 11 14 0 27 5 29 11 3 8 -13 11 -47 11
-27 0 -51 -3 -51 -6z"/>
<path d="M7513 9723 c-15 -5 -17 -23 -4 -23 5 0 11 7 15 15 3 8 4 15 3 14 -1
0 -8 -3 -14 -6z"/>
<path d="M7815 9720 c-4 -6 -10 -8 -14 -5 -5 2 -30 -6 -57 -19 -29 -14 -51
-20 -55 -14 -4 5 -9 3 -12 -5 -6 -15 5 -16 61 -2 17 4 32 11 32 15 0 5 8 6 18
4 10 -3 22 3 30 16 7 11 10 20 8 20 -3 0 -8 -5 -11 -10z"/>
<path d="M8055 9710 c3 -5 8 -10 11 -10 2 0 4 5 4 10 0 6 -5 10 -11 10 -5 0
-7 -4 -4 -10z"/>
<path d="M5760 9689 c0 -5 5 -7 10 -4 6 3 10 8 10 11 0 2 -4 4 -10 4 -5 0 -10
-5 -10 -11z"/>
<path d="M5416 9645 c4 -8 10 -12 15 -9 14 8 10 24 -6 24 -9 0 -12 -6 -9 -15z"/>
<path d="M7678 9633 c7 -3 16 -2 19 1 4 3 -2 6 -13 5 -11 0 -14 -3 -6 -6z"/>
<path d="M3980 9420 c0 -5 5 -10 11 -10 5 0 7 5 4 10 -3 6 -8 10 -11 10 -2 0
-4 -4 -4 -10z"/>
<path d="M8083 9338 c1 -6 -9 -15 -23 -19 l-25 -7 28 -1 c35 -1 65 24 41 33
-22 8 -24 8 -21 -6z"/>
<path d="M7284 9313 c2 -10 -1 -21 -6 -24 -6 -4 -6 -9 -1 -12 5 -3 15 -1 23 4
11 8 12 12 3 15 -7 3 -9 12 -6 20 3 8 1 14 -5 14 -6 0 -9 -8 -8 -17z"/>
<path d="M8005 9290 c-3 -5 -1 -10 4 -10 6 0 11 5 11 10 0 6 -2 10 -4 10 -3 0
-8 -4 -11 -10z"/>
<path d="M8077 9284 c3 -9 -3 -14 -18 -14 -36 0 -9 -17 39 -24 26 -4 42 -2 42
4 0 5 -11 10 -25 10 -14 0 -25 5 -25 10 0 6 12 10 26 10 14 0 23 4 19 9 -9 16
-64 10 -58 -5z"/>
<path d="M7350 9234 c0 -6 7 -19 15 -30 8 -10 14 -14 14 -9 0 6 -6 19 -14 29
-8 11 -15 15 -15 10z"/>
<path d="M4657 9146 c-3 -8 -3 -17 0 -20 9 -9 34 15 27 25 -8 13 -21 11 -27
-5z"/>
<path d="M7516 9080 c10 -16 19 -28 21 -26 5 5 -22 56 -30 56 -5 0 0 -13 9
-30z"/>
<path d="M3981 9064 c0 -11 3 -14 6 -6 3 7 2 16 -1 19 -3 4 -6 -2 -5 -13z"/>
<path d="M7560 9076 c0 -2 8 -10 18 -17 15 -13 16 -12 3 4 -13 16 -21 21 -21
13z"/>
<path d="M4007 9030 c-22 -26 -21 -30 2 -30 21 0 37 28 23 42 -4 4 -15 -1 -25
-12z"/>
<path d="M8166 9012 c-3 -6 -1 -14 5 -17 15 -10 25 3 12 16 -7 7 -13 7 -17 1z"/>
<path d="M8047 8977 c-3 -9 5 -14 27 -15 29 -2 30 -1 12 13 -24 18 -32 19 -39
2z"/>
<path d="M8034 8884 c-8 -31 19 -68 29 -41 3 9 0 21 -8 27 -8 6 -11 18 -8 26
3 8 2 14 -1 14 -3 0 -9 -12 -12 -26z"/>
<path d="M8120 8870 c-8 -5 -11 -12 -8 -16 4 -3 14 1 23 10 18 17 9 21 -15 6z"/>
<path d="M7705 8770 c3 -5 8 -10 11 -10 2 0 4 5 4 10 0 6 -5 10 -11 10 -5 0
-7 -4 -4 -10z"/>
<path d="M7978 8693 c7 -3 16 -2 19 1 4 3 -2 6 -13 5 -11 0 -14 -3 -6 -6z"/>
<path d="M3949 8573 c-39 -48 -43 -54 -25 -47 9 3 16 12 16 20 0 8 4 14 9 14
5 0 11 7 15 15 7 20 2 19 -15 -2z"/>
<path d="M7899 8561 c7 -5 11 -14 7 -20 -5 -7 -1 -9 8 -5 20 8 20 20 0 28 -23
9 -31 7 -15 -3z"/>
<path d="M8173 8416 c3 -7 0 -19 -6 -25 -6 -6 -7 -11 -1 -11 12 0 35 36 27 44
-12 11 -25 6 -20 -8z"/>
<path d="M7947 8228 c-9 -36 8 -137 26 -156 20 -19 22 -5 5 35 -17 41 -19 54
-19 101 -1 47 -4 53 -12 20z"/>
<path d="M3972 8218 c-6 -6 -12 -21 -11 -32 0 -15 2 -17 6 -6 3 8 10 18 16 21
5 4 8 12 6 18 -3 9 -8 8 -17 -1z"/>
<path d="M8090 8202 c0 -11 7 -18 20 -18 18 0 18 2 3 18 -9 10 -18 18 -20 18
-1 0 -3 -8 -3 -18z"/>
<path d="M8001 8130 c0 -8 4 -22 9 -30 12 -18 12 -2 0 25 -6 13 -9 15 -9 5z"/>
<path d="M7896 8095 c-3 -8 -1 -15 4 -15 4 0 12 -15 16 -32 6 -32 7 -32 15
-10 5 13 13 20 19 17 15 -9 12 2 -6 30 -18 28 -39 32 -48 10z"/>
<path d="M7942 8014 c-16 -34 -5 -104 17 -104 9 0 12 3 6 8 -5 4 -11 15 -12
25 -1 14 4 17 17 14 14 -3 17 0 13 12 -3 12 -1 11 11 -3 16 -19 16 -19 16 2 0
15 -5 20 -20 17 -13 -2 -20 2 -20 11 0 8 7 14 16 14 14 0 14 3 4 15 -18 22
-35 18 -48 -11z"/>
<path d="M5135 7932 c-22 -2 -45 -8 -52 -13 -8 -7 -19 -7 -33 1 -28 15 -97 4
-97 -16 0 -8 8 -14 17 -14 27 0 41 -21 24 -37 -12 -12 -20 -13 -42 -4 -31 13
-114 12 -106 -1 4 -5 12 -7 19 -4 7 2 26 -4 43 -14 18 -11 34 -15 37 -10 4 6
17 10 31 10 13 0 24 5 24 10 0 6 7 10 16 10 8 0 13 4 9 9 -3 6 19 8 56 5 41
-3 59 -2 54 6 -3 5 -13 10 -20 10 -8 0 -12 6 -9 14 3 8 13 12 26 8 16 -4 19
-2 13 8 -6 10 -2 11 21 5 42 -10 84 -12 90 -4 8 14 -64 27 -121 21z"/>
<path d="M4900 7910 c0 -6 7 -10 15 -10 8 0 15 2 15 4 0 2 -7 6 -15 10 -8 3
-15 1 -15 -4z"/>
<path d="M3950 7855 c0 -32 2 -56 5 -53 8 8 9 98 1 105 -3 4 -6 -20 -6 -52z"/>
<path d="M4206 7892 c-13 -22 -26 -132 -17 -155 7 -18 7 -27 -2 -31 -7 -2 -5
-5 4 -5 9 -1 20 9 24 22 6 18 8 95 4 132 -1 6 2 18 6 28 7 17 -9 25 -19 9z"/>
<path d="M7920 7850 c0 -6 7 -10 15 -10 8 0 15 2 15 4 0 2 -7 6 -15 10 -8 3
-15 1 -15 -4z"/>
<path d="M5045 7840 c-3 -5 -1 -10 4 -10 6 0 11 5 11 10 0 6 -2 10 -4 10 -3 0
-8 -4 -11 -10z"/>
<path d="M3957 7740 c3 -11 7 -20 9 -20 2 0 4 9 4 20 0 11 -4 20 -9 20 -5 0
-7 -9 -4 -20z"/>
<path d="M4186 7684 c7 -3 10 -15 8 -27 -4 -21 -4 -21 5 -2 10 23 5 35 -12 34
-9 0 -9 -2 -1 -5z"/>
<path d="M4131 7624 c0 -11 3 -14 6 -6 3 7 2 16 -1 19 -3 4 -6 -2 -5 -13z"/>
<path d="M4155 7590 c-4 -6 -11 -8 -16 -5 -5 4 -9 -1 -9 -9 0 -8 5 -18 10 -21
6 -3 10 -12 10 -18 0 -7 -4 -6 -10 3 -6 9 -10 10 -10 3 0 -6 5 -15 10 -18 6
-3 10 -13 10 -21 0 -8 -4 -13 -9 -10 -4 3 -6 -6 -3 -19 2 -14 -1 -32 -8 -40
-10 -12 -10 -15 0 -15 8 0 10 -8 6 -23 -4 -16 -1 -24 8 -24 10 0 12 7 6 29 -5
16 -5 30 1 34 5 3 7 10 4 15 -4 5 -2 9 3 9 5 0 9 14 10 31 0 18 4 49 7 70 6
37 -5 53 -20 29z"/>
<path d="M4013 7500 c-1 -11 2 -22 8 -25 5 -4 9 5 9 19 0 30 -15 35 -17 6z"/>
<path d="M3990 7452 c0 -2 6 -9 13 -16 10 -10 16 -9 31 5 18 18 18 18 -13 16
-17 -1 -31 -3 -31 -5z"/>
<path d="M4088 7443 c7 -3 16 -2 19 1 4 3 -2 6 -13 5 -11 0 -14 -3 -6 -6z"/>
<path d="M7228 7438 c5 -5 16 -8 23 -6 8 3 3 7 -10 11 -17 4 -21 3 -13 -5z"/>
<path d="M4887 7429 c7 -7 15 -10 18 -7 3 3 -2 9 -12 12 -14 6 -15 5 -6 -5z"/>
<path d="M4077 7423 c-4 -3 -7 -16 -6 -27 0 -19 1 -19 10 3 10 24 8 36 -4 24z"/>
<path d="M6946 7405 c-24 -24 -21 -72 5 -80 28 -9 33 -1 31 43 -4 46 -15 58
-36 37z"/>
<path d="M5145 7370 c-24 -26 -13 -68 21 -76 14 -4 27 -4 29 -2 3 3 2 26 -1
51 -7 51 -21 58 -49 27z"/>
<path d="M4780 7356 c-24 -9 -30 -15 -20 -19 13 -5 12 -8 -4 -21 -11 -9 -17
-18 -14 -21 5 -6 78 60 78 70 0 3 -1 5 -2 4 -2 0 -19 -6 -38 -13z"/>
<path d="M4065 7350 c3 -5 8 -10 11 -10 2 0 4 5 4 10 0 6 -5 10 -11 10 -5 0
-7 -4 -4 -10z"/>
<path d="M4087 7339 c-3 -12 -10 -18 -16 -15 -6 4 -9 -5 -6 -24 2 -18 -3 -36
-12 -45 -8 -9 -13 -18 -10 -21 10 -10 42 20 45 41 1 11 5 35 7 53 6 36 0 43
-8 11z"/>
<path d="M5093 5459 c7 -11 20 -22 29 -25 10 -3 18 -10 18 -15 0 -10 8 -19
119 -119 67 -60 150 -120 166 -120 2 0 -5 21 -15 48 -18 45 -20 47 -54 44 -34
-3 -38 -1 -53 35 -9 21 -16 48 -15 61 1 13 -2 20 -8 17 -6 -4 -8 -10 -5 -15 3
-5 1 -11 -4 -14 -14 -9 -43 31 -37 51 10 34 -5 41 -136 67 -14 3 -15 1 -5 -15z"/>
<path d="M6816 5445 c-35 -18 -66 -53 -66 -72 0 -11 7 -10 33 6 19 11 37 18
40 14 4 -3 7 1 7 10 0 10 7 17 15 17 8 0 15 5 15 10 0 6 6 10 14 10 8 0 18 5
21 10 10 16 -46 12 -79 -5z"/>
<path d="M6636 5254 c-5 -14 -4 -15 9 -4 17 14 19 20 6 20 -5 0 -12 -7 -15
-16z"/>
<path d="M5521 5186 c-8 -9 -21 -16 -30 -16 -9 -1 2 -7 24 -15 21 -8 40 -13
41 -12 1 1 -4 15 -11 30 -10 25 -13 26 -24 13z"/>
<path d="M5710 5100 c0 -5 7 -10 16 -10 8 0 12 5 9 10 -3 6 -10 10 -16 10 -5
0 -9 -4 -9 -10z"/>
<path d="M7430 4066 c0 -2 41 -32 90 -66 121 -83 125 -89 124 -220 -2 -142
-38 -293 -101 -417 -26 -51 -51 -93 -55 -93 -4 0 -8 -5 -8 -10 0 -27 -143
-193 -267 -311 -75 -72 -258 -189 -368 -236 -69 -30 -110 -46 -110 -43 0 1
-31 -10 -70 -25 -38 -14 -88 -30 -110 -35 -22 -4 -71 -15 -110 -24 -38 -8 -83
-17 -100 -20 -16 -3 -61 -10 -100 -17 -44 -8 -111 -9 -185 -5 -115 6 -130 8
-225 22 -27 5 -54 9 -60 9 -122 16 -234 46 -302 79 -29 14 -58 26 -64 26 -26
0 -339 197 -449 282 -92 72 -300 272 -379 366 -77 90 -151 205 -166 257 -10
34 -14 85 -12 155 3 125 14 153 93 234 30 31 54 59 54 61 0 3 -9 5 -19 5 -36
0 -119 -52 -158 -98 -21 -25 -44 -51 -51 -59 -9 -8 -10 -13 -2 -13 6 0 8 -5 5
-10 -4 -6 -10 -8 -15 -5 -4 3 -11 -2 -14 -11 -4 -9 -9 -14 -13 -11 -3 4 -19
-5 -35 -18 -16 -14 -34 -22 -40 -19 -6 4 -14 0 -19 -7 -7 -11 -9 -10 -9 4 0 9
4 17 8 17 5 0 22 11 38 25 39 34 23 47 -69 53 -62 4 -83 1 -135 -21 -102 -41
-156 -87 -157 -133 0 -8 -15 -22 -34 -32 -36 -17 -59 -51 -27 -39 9 4 16 2 16
-2 0 -10 -89 -43 -99 -37 -4 3 -33 -2 -66 -10 -33 -7 -74 -14 -92 -14 -17 0
-33 -6 -36 -12 -3 -10 -7 -10 -19 0 -12 10 -18 10 -27 -2 -15 -18 -51 -27 -51
-13 0 7 -5 4 -11 -5 -5 -10 -15 -18 -22 -18 -7 0 -6 4 3 10 8 5 11 10 6 10 -5
0 -44 -21 -87 -46 -52 -31 -76 -51 -72 -60 3 -8 0 -14 -7 -14 -6 0 -8 5 -5 10
13 21 -11 8 -66 -35 -32 -25 -61 -45 -66 -45 -4 0 -24 -15 -43 -33 -19 -17
-42 -33 -50 -34 -8 0 -53 -18 -100 -38 -47 -20 -96 -40 -110 -42 -14 -3 -30
-10 -36 -14 -6 -5 -31 -16 -55 -23 -24 -8 -62 -21 -84 -29 -22 -8 -58 -17 -80
-21 -22 -3 -69 -16 -105 -29 -121 -45 -142 -56 -134 -69 4 -7 3 -10 -1 -5 -5
4 -15 1 -24 -7 -19 -16 -112 -66 -124 -66 -5 0 -5 5 -2 10 3 6 -1 10 -9 10 -8
0 -18 -4 -21 -10 -3 -5 -1 -10 5 -10 6 0 9 -4 6 -9 -4 -5 -1 -11 6 -13 8 -3 6
-7 -5 -11 -11 -4 -17 -1 -17 8 0 24 -45 18 -56 -7 -6 -13 -9 -17 -7 -10 4 18
-11 15 -38 -9 -13 -12 -25 -16 -27 -10 -2 6 -7 9 -11 7 -12 -8 -187 -46 -281
-61 -150 -25 -159 -27 -315 -74 -203 -60 -358 -120 -351 -136 2 -6 41 -63 86
-126 674 -937 1585 -1656 2640 -2081 578 -233 1167 -368 1820 -418 187 -15
664 -15 850 0 1314 101 2505 596 3500 1454 244 211 557 538 764 799 l77 97
-28 25 c-15 13 -32 25 -37 25 -5 0 -19 11 -31 24 -13 14 -26 22 -29 19 -3 -4
-6 1 -6 10 0 9 -4 19 -10 22 -6 4 -7 -1 -3 -11 4 -12 3 -15 -5 -10 -7 4 -12
17 -12 28 0 12 -3 18 -7 15 -3 -4 -12 2 -20 13 -8 11 -20 20 -27 20 -7 0 -22
14 -34 30 -13 17 -29 30 -37 30 -8 0 -25 11 -37 25 -11 13 -25 22 -30 19 -4
-3 -8 0 -8 6 0 7 -7 9 -16 6 -8 -3 -12 -2 -9 4 3 6 3 10 -2 11 -29 2 -58 11
-69 20 -7 6 -18 8 -23 5 -5 -4 -12 -2 -16 3 -8 14 -66 55 -63 44 2 -4 -1 -9
-6 -10 -5 -1 -12 -6 -16 -13 -5 -7 -11 -6 -21 6 -9 12 -10 15 -1 10 6 -4 12
-3 12 2 0 16 -31 23 -45 12 -10 -8 -15 -8 -20 0 -4 7 -16 10 -26 7 -14 -4 -19
0 -19 13 0 11 -4 22 -10 25 -5 3 -10 1 -10 -6 0 -7 -10 -3 -23 9 -13 12 -31
22 -41 22 -11 0 -15 4 -10 13 5 7 2 7 -10 -2 -13 -11 -16 -11 -14 -2 2 8 -16
19 -44 27 -27 8 -48 19 -48 24 0 5 -8 7 -17 3 -10 -3 -15 -2 -10 2 6 7 -37 32
-58 35 -3 0 -21 9 -41 20 -19 11 -39 18 -44 15 -4 -2 -13 1 -19 9 -7 8 -27 17
-47 20 -19 4 -51 18 -71 32 -20 13 -44 24 -54 24 -11 0 -19 6 -19 14 0 8 -5
18 -12 22 -7 4 -8 3 -4 -4 10 -17 -3 -15 -20 3 -9 8 -24 15 -35 15 -11 0 -19
7 -19 17 0 9 -3 14 -6 10 -10 -9 -66 22 -59 33 4 6 -3 10 -14 10 -12 0 -21 4
-21 9 0 10 -69 37 -83 33 -5 -1 -6 2 -2 8 3 5 -7 15 -22 22 -15 7 -42 23 -59
35 -17 13 -35 23 -41 23 -5 0 -25 12 -44 26 -45 35 -130 74 -142 67 -6 -3 -7
-1 -3 5 4 7 2 12 -4 12 -6 0 -26 11 -44 25 -18 14 -37 25 -41 25 -4 0 -31 18
-59 39 -28 22 -85 54 -126 72 -41 18 -76 37 -78 41 -2 4 -8 8 -14 8 -5 0 -37
16 -71 36 -33 19 -69 36 -79 37 -10 1 -18 8 -18 15 0 12 -3 12 -15 2 -10 -9
-15 -9 -15 -1 0 6 -12 11 -26 11 -17 0 -28 6 -31 20 -3 13 -14 20 -29 20 -12
0 -26 5 -29 10 -3 6 -48 30 -98 54 -101 48 -184 65 -194 39 -3 -8 -1 -18 5
-22 6 -3 16 -19 22 -35 9 -24 8 -27 -6 -22 -8 3 -21 6 -27 7 -7 0 -3 4 8 9 16
7 17 9 3 9 -9 1 -24 4 -34 8 -13 5 -15 3 -9 -7 5 -8 3 -11 -6 -8 -8 3 -13 10
-12 15 1 5 -23 9 -52 8 -30 0 -51 2 -47 5 4 3 9 14 10 24 3 17 2 18 -12 7 -11
-9 -16 -10 -16 -2 0 6 -7 11 -15 11 -8 0 -15 7 -15 15 0 8 -6 12 -13 9 -11 -4
-54 53 -50 67 1 4 -15 25 -37 46 -26 27 -54 44 -84 52 -44 11 -106 15 -106 7z
m580 -236 c0 -5 -2 -10 -4 -10 -3 0 -8 5 -11 10 -3 6 -1 10 4 10 6 0 11 -4 11
-10z m92 -18 c21 -9 38 -22 38 -28 0 -7 10 -18 23 -27 12 -8 33 -24 46 -36 13
-11 27 -21 31 -21 13 0 60 -52 60 -67 0 -10 -5 -11 -19 -4 -10 6 -21 7 -25 4
-3 -3 -6 -1 -6 5 0 14 -45 63 -52 57 -3 -3 -13 6 -22 20 -9 14 -25 25 -35 25
-9 0 -23 11 -31 24 -7 14 -29 37 -49 52 -37 27 -24 26 41 -4z m-3807 -2 c3 -6
-1 -7 -9 -4 -18 7 -21 14 -7 14 6 0 13 -4 16 -10z m4038 -230 c6 -23 3 -24
-24 -10 -24 14 -25 30 0 30 10 0 21 -9 24 -20z m27 -61 c0 -5 -4 -9 -10 -9 -5
0 -10 7 -10 16 0 8 5 12 10 9 6 -3 10 -10 10 -16z m57 15 c-3 -3 -12 -4 -19
-1 -8 3 -5 6 6 6 11 1 17 -2 13 -5z m-5502 -304 c-3 -5 -12 -10 -18 -10 -7 0
-6 4 3 10 19 12 23 12 15 0z m-296 -83 c-2 -1 -13 -9 -24 -17 -19 -14 -19 -14
-6 3 7 9 18 17 24 17 6 0 8 -1 6 -3z m-274 -87 c-3 -5 -11 -10 -16 -10 -6 0
-7 5 -4 10 3 6 11 10 16 10 6 0 7 -4 4 -10z m5835 -381 c0 -6 -4 -7 -10 -4 -5
3 -10 11 -10 16 0 6 5 7 10 4 6 -3 10 -11 10 -16z m1120 -359 c0 -5 -4 -10
-10 -10 -5 0 -10 5 -10 10 0 6 5 10 10 10 6 0 10 -4 10 -10z m-1890 -240 c0
-5 -5 -10 -11 -10 -5 0 -7 5 -4 10 3 6 8 10 11 10 2 0 4 -4 4 -10z m2500 -20
c0 -5 -4 -10 -10 -10 -5 0 -10 5 -10 10 0 6 5 10 10 10 6 0 10 -4 10 -10z
m-475 -300 c3 -5 1 -10 -4 -10 -6 0 -11 5 -11 10 0 6 2 10 4 10 3 0 8 -4 11
-10z"/>
<path d="M8280 3740 c0 -6 7 -10 15 -10 8 0 15 2 15 4 0 2 -7 6 -15 10 -8 3
-15 1 -15 -4z"/>
<path d="M3720 3650 c-9 -6 -10 -10 -3 -10 6 0 15 5 18 10 8 12 4 12 -15 0z"/>
</g>
</svg>
