<?xml version="1.0" encoding="UTF-8" standalone="no"?>
<!DOCTYPE svg PUBLIC "-//W3C//DTD SVG 1.1//EN" "http://www.w3.org/Graphics/SVG/1.1/DTD/svg11.dtd">
<svg width="100" height="100" viewBox="0 0 100 100" version="1.1" xmlns="http://www.w3.org/2000/svg" style="fill-rule:evenodd;clip-rule:evenodd;stroke-linejoin:round;stroke-miterlimit:2;">
    <g transform="matrix(0.311914,0,0,0.311914,20.8361,15)">
        <path d="M12.8,0.921C8.2,2.321 4.3,5.721 2.1,10.221C0,14.521 0,15.221 0,112.421C0,210.121 0,210.321 2.1,214.721C3.4,217.321 5.9,220.121 8.3,221.721L12.4,224.421L174.6,224.421L178.7,221.721C181.1,220.121 183.6,217.321 184.9,214.721C187,210.321 187,209.721 187,133.121C187,81.221 186.7,55.121 185.9,53.221C184.4,49.021 139.4,4.121 134.5,1.821C130.7,0.121 127.1,-0.079 73,0.021C41.4,0.021 14.3,0.421 12.8,0.921ZM112.2,40.121C112.5,62.921 112.9,64.721 118.2,69.621C123.2,74.321 126.6,74.921 148.5,74.921L169,74.921L169,205.921L18,205.921L18,18.921L111.8,18.921L112.2,40.121ZM41.7,170.021C40.8,170.521 39.3,172.421 38.4,174.021C36.4,177.921 37.3,182.221 40.7,184.921C43.2,186.821 44.7,186.921 93.5,186.921C142.3,186.921 143.8,186.821 146.3,184.921C147.7,183.821 149.1,181.621 149.5,180.021C150.2,176.621 148,171.521 145.1,169.921C142.4,168.521 44.2,168.621 41.7,170.021ZM44,131.621C36.5,134.421 35.2,144.921 42,148.421C46.3,150.621 140.7,150.621 145,148.421C150.5,145.621 151,137.921 146,133.421C143.9,131.521 142.2,131.421 94.6,131.221C67.6,131.121 44.8,131.321 44,131.621ZM41.7,95.021C40.8,95.521 39.3,97.421 38.4,99.021C36.4,102.921 37.3,107.221 40.7,109.921C43.2,111.821 44.7,111.921 93.5,111.921C142.3,111.921 143.8,111.821 146.3,109.921C147.7,108.821 149.1,106.621 149.5,105.021C150.2,101.621 148,96.521 145.1,94.921C142.4,93.521 44.2,93.621 41.7,95.021ZM148,39.421L164.5,55.921L131,55.921L131,39.421C131,30.321 131.1,22.921 131.3,22.921C131.4,22.921 138.9,30.321 148,39.421Z" style="fill:white;fill-rule:nonzero;"/>
    </g>
</svg>
