<?xml version="1.0" encoding="UTF-8" standalone="no"?>
<!DOCTYPE svg PUBLIC "-//W3C//DTD SVG 1.1//EN" "http://www.w3.org/Graphics/SVG/1.1/DTD/svg11.dtd">
<svg width="100%" height="100%" viewBox="0 0 542 542" version="1.1" xmlns="http://www.w3.org/2000/svg" xmlns:xlink="http://www.w3.org/1999/xlink" style="fill-rule:evenodd;clip-rule:evenodd;stroke-linejoin:round;stroke-miterlimit:2;">
    <g id="path3204" transform="matrix(0.831929,0,0,0.831929,12.6219,-162.074)">
        <path d="M349.305,210.444C199.789,210.444 78.586,331.647 78.586,481.162L78.586,751.631L337.961,751.631C341.722,751.786 345.506,751.881 349.305,751.881C498.82,751.881 620.024,630.678 620.024,481.162C620.024,331.647 498.82,210.444 349.305,210.444Z" style="fill:rgb(255,89,0);fill-rule:nonzero;"/>
    </g>
    <g id="path3192" transform="matrix(0.831929,0,0,0.831929,12.6219,-162.074)">
        <path d="M349.305,273.287C234.505,273.287 141.43,366.362 141.43,481.162L141.43,751.631L224.617,751.631L224.617,481.381C224.617,412.74 280.258,357.069 348.899,357.069C417.54,357.069 473.18,412.74 473.18,481.381C473.18,550.022 417.54,605.662 348.899,605.662C323.803,605.662 300.436,598.204 280.899,585.412L280.899,674.756C293.989,682.811 323.875,688.5 358.93,688.787C469.258,683.754 557.18,592.734 557.18,481.162C557.18,366.362 464.105,273.287 349.305,273.287ZM340.586,688.819C343.474,688.938 346.388,689.037 349.305,689.037C352.375,689.037 355.423,688.95 358.461,688.819L340.586,688.819Z" style="fill:white;fill-rule:nonzero;"/>
    </g>
</svg>
